<svg width="15" height="16" viewBox="0 0 15 16" fill="none" xmlns="http://www.w3.org/2000/svg">
<path d="M6 4.25C5.99985 5.29298 6.31035 6.31237 6.89192 7.17816C7.47348 8.04395 8.29975 8.7169 9.26533 9.11118C10.2309 9.50546 11.2921 9.6032 12.3134 9.39194C13.3348 9.18068 14.2701 8.66999 15 7.925V8C15 12.1423 11.6423 15.5 7.5 15.5C3.35775 15.5 0 12.1423 0 8C0 3.85775 3.35775 0.5 7.5 0.5H7.575C7.07553 0.988344 6.67886 1.57172 6.40836 2.21576C6.13786 2.8598 5.99902 3.55146 6 4.25ZM1.5 8C1.49945 9.33873 1.94665 10.6392 2.77042 11.6945C3.59419 12.7497 4.74723 13.4992 6.04606 13.8236C7.34489 14.148 8.71491 14.0287 9.93813 13.4847C11.1614 12.9407 12.1675 12.0033 12.7965 10.8215C11.6771 11.0852 10.5088 11.0586 9.40262 10.744C8.29639 10.4295 7.28888 9.83756 6.47566 9.02434C5.66244 8.21112 5.07048 7.20361 4.75596 6.09738C4.44144 4.99116 4.41477 3.82292 4.6785 2.7035C3.71818 3.2151 2.91509 3.97825 2.35519 4.91123C1.7953 5.84422 1.49968 6.91191 1.5 8Z" fill="#5E6877"/>
</svg>
