<svg width="17" height="18" viewBox="0 0 17 18" fill="none" xmlns="http://www.w3.org/2000/svg">
<path d="M8.5 13.5C7.30653 13.5 6.16193 13.0259 5.31802 12.182C4.47411 11.3381 4 10.1935 4 9C4 7.80653 4.47411 6.66193 5.31802 5.81802C6.16193 4.97411 7.30653 4.5 8.5 4.5C9.69347 4.5 10.8381 4.97411 11.682 5.81802C12.5259 6.66193 13 7.80653 13 9C13 10.1935 12.5259 11.3381 11.682 12.182C10.8381 13.0259 9.69347 13.5 8.5 13.5ZM7.75 0.75H9.25V3H7.75V0.75ZM7.75 15H9.25V17.25H7.75V15ZM2.13625 3.69675L3.19675 2.63625L4.7875 4.227L3.727 5.2875L2.13625 3.6975V3.69675ZM12.2125 13.773L13.273 12.7125L14.8638 14.3032L13.8032 15.3638L12.2125 13.773ZM13.8032 2.6355L14.8638 3.69675L13.273 5.2875L12.2125 4.227L13.8032 2.63625V2.6355ZM3.727 12.7125L4.7875 13.773L3.19675 15.3638L2.13625 14.3032L3.727 12.7125ZM16.75 8.25V9.75H14.5V8.25H16.75ZM2.5 8.25V9.75H0.25V8.25H2.5Z" fill="white"/>
</svg>
